<svg width="30" height="30" viewBox="0 0 30 30" fill="none" xmlns="http://www.w3.org/2000/svg">
<path d="M20 17.5C20.6904 17.5 21.25 16.9404 21.25 16.25C21.25 15.5596 20.6904 15 20 15V16.25V17.5ZM10 15C9.30964 15 8.75 15.5596 8.75 16.25C8.75 16.9404 9.30964 17.5 10 17.5V16.25V15ZM15 12.5C15.6904 12.5 16.25 11.9404 16.25 11.25C16.25 10.5596 15.6904 10 15 10V11.25V12.5ZM10 10C9.30964 10 8.75 10.5596 8.75 11.25C8.75 11.9404 9.30964 12.5 10 12.5V11.25V10ZM17.5028 23.7486L17.4983 22.4986C17.3058 22.4993 17.116 22.5445 16.9438 22.6306L17.5028 23.7486ZM22.8374 23.0688L22.27 21.955V21.955L22.8374 23.0688ZM25.5688 20.3374L24.455 19.77V19.77L25.5688 20.3374ZM25.5688 5.91256L24.455 6.48005V6.48005L25.5688 5.91256ZM22.8374 3.18121L22.27 4.29497V4.29497L22.8374 3.18121ZM7.16256 3.18121L7.73005 4.29497V4.29497L7.16256 3.18121ZM4.43121 5.91256L5.54497 6.48005L5.54497 6.48005L4.43121 5.91256ZM4.43121 20.3374L5.54497 19.77H5.54497L4.43121 20.3374ZM7.16256 23.0688L7.73005 21.955H7.73005L7.16256 23.0688ZM10 23.69H11.25C11.25 23.0293 10.7357 22.4826 10.0762 22.4424L10 23.69ZM10 27.5H8.75C8.75 27.9332 8.97432 28.3356 9.34284 28.5633C9.71136 28.7911 10.1715 28.8118 10.559 28.618L10 27.5ZM20 16.25V15H10V16.25V17.5H20V16.25ZM15 11.25V10H10V11.25V12.5H15V11.25ZM17.5028 23.7486L17.5073 24.9986C20.1138 24.9893 21.9218 24.9383 23.4049 24.1825L22.8374 23.0688L22.27 21.955C21.4191 22.3885 20.2634 22.4887 17.4983 22.4986L17.5028 23.7486ZM22.8374 23.0688L23.4049 24.1825C24.8161 23.4635 25.9635 22.3161 26.6825 20.9049L25.5688 20.3374L24.455 19.77C23.9757 20.7108 23.2108 21.4757 22.27 21.955L22.8374 23.0688ZM25.5688 20.3374L26.6825 20.9049C27.1279 20.0309 27.3192 19.0763 27.4107 17.9568C27.501 16.8519 27.5 15.4795 27.5 13.75H26.25H25C25 15.5208 24.999 16.7737 24.919 17.7532C24.8402 18.7181 24.6909 19.3071 24.455 19.77L25.5688 20.3374ZM26.25 13.75H27.5V12.5H26.25H25V13.75H26.25ZM26.25 12.5H27.5C27.5 10.7705 27.501 9.39813 27.4107 8.29322C27.3192 7.17372 27.1279 6.21913 26.6825 5.34507L25.5688 5.91256L24.455 6.48005C24.6909 6.94294 24.8402 7.5319 24.919 8.4968C24.999 9.47629 25 10.7292 25 12.5H26.25ZM25.5688 5.91256L26.6825 5.34507C25.9635 3.93386 24.8161 2.7865 23.4049 2.06745L22.8374 3.18121L22.27 4.29497C23.2108 4.77433 23.9757 5.53924 24.455 6.48005L25.5688 5.91256ZM22.8374 3.18121L23.4049 2.06745C22.5309 1.6221 21.5763 1.43077 20.4568 1.3393C19.3519 1.24903 17.9795 1.25 16.25 1.25V2.5V3.75C18.0208 3.75 19.2737 3.75097 20.2532 3.831C21.2181 3.90984 21.8071 4.05911 22.27 4.29497L22.8374 3.18121ZM16.25 2.5V1.25H13.75V2.5V3.75H16.25V2.5ZM13.75 2.5V1.25C12.0205 1.25 10.6481 1.24903 9.54322 1.3393C8.42372 1.43077 7.46913 1.6221 6.59507 2.06745L7.16256 3.18121L7.73005 4.29497C8.19294 4.05911 8.7819 3.90984 9.7468 3.831C10.7263 3.75097 11.9792 3.75 13.75 3.75V2.5ZM7.16256 3.18121L6.59507 2.06745C5.18386 2.7865 4.0365 3.93386 3.31745 5.34507L4.43121 5.91256L5.54497 6.48005C6.02433 5.53924 6.78924 4.77433 7.73005 4.29497L7.16256 3.18121ZM4.43121 5.91256L3.31745 5.34507C2.8721 6.21913 2.68077 7.17372 2.5893 8.29322C2.49903 9.39813 2.5 10.7705 2.5 12.5H3.75H5C5 10.7292 5.00097 9.47629 5.081 8.4968C5.15984 7.5319 5.30911 6.94294 5.54497 6.48005L4.43121 5.91256ZM3.75 12.5H2.5V13.75H3.75H5V12.5H3.75ZM3.75 13.75H2.5C2.5 15.4795 2.49903 16.8519 2.5893 17.9568C2.68077 19.0763 2.8721 20.0309 3.31745 20.9049L4.43121 20.3374L5.54497 19.77C5.30911 19.3071 5.15984 18.7181 5.081 17.7532C5.00097 16.7737 5 15.5208 5 13.75H3.75ZM4.43121 20.3374L3.31745 20.9049C4.0365 22.3161 5.18386 23.4635 6.59507 24.1825L7.16256 23.0688L7.73005 21.955C6.78924 21.4757 6.02433 20.7108 5.54497 19.77L4.43121 20.3374ZM7.16256 23.0688L6.59507 24.1825C7.56391 24.6762 8.63544 24.859 9.92382 24.9377L10 23.69L10.0762 22.4424C8.91323 22.3713 8.24564 22.2177 7.73005 21.955L7.16256 23.0688ZM10 27.5H11.25V23.69H10H8.75V27.5H10ZM17.5028 23.7486L16.9438 22.6306L9.44098 26.382L10 27.5L10.559 28.618L18.0618 24.8666L17.5028 23.7486Z" fill="#128FBA"/>
</svg>
