<svg width="20" height="20" viewBox="0 0 20 20" fill="none" xmlns="http://www.w3.org/2000/svg">
<path d="M5.83333 4.99996V5.00825M9.16667 4.99996V5.00825M5.83333 8.33329V8.34158M9.16667 8.33329V8.34158M5.83333 11.6666V11.6749M9.16667 11.6666V11.6749M5.83333 15V15.0082M9.16667 15V15.0082M12.5 18.3333H6.5C5.09987 18.3333 4.3998 18.3333 3.86502 18.0608C3.39462 17.8211 3.01217 17.4387 2.77248 16.9683C2.5 16.4335 2.5 15.7334 2.5 14.3333L2.5 5.66663C2.5 4.26649 2.5 3.56643 2.77248 3.03165C3.01217 2.56124 3.39462 2.17879 3.86502 1.93911C4.3998 1.66663 5.09987 1.66663 6.5 1.66663L8.5 1.66663C9.90013 1.66663 10.6002 1.66663 11.135 1.93911C11.6054 2.17879 11.9878 2.56124 12.2275 3.03165C12.5 3.56643 12.5 4.26649 12.5 5.66663V18.3333ZM12.5 18.3333H14.8333C15.7668 18.3333 16.2335 18.3333 16.59 18.1516C16.9036 17.9918 17.1586 17.7369 17.3183 17.4233C17.5 17.0668 17.5 16.6 17.5 15.6666V11.4271C17.5 10.9053 17.5 10.6444 17.4281 10.4076C17.3644 10.198 17.26 10.0029 17.1209 9.83367C16.9638 9.64247 16.7467 9.49775 16.3125 9.20832L12.5 6.66663V18.3333Z" stroke="#F9FAFB" stroke-width="2" stroke-linecap="round" stroke-linejoin="round"/>
</svg>
