<svg width="20" height="20" viewBox="0 0 20 20" fill="none" xmlns="http://www.w3.org/2000/svg">
<path d="M16.6667 12.5V17.5M16.6667 12.5C15.7463 12.5 15.0001 11.7538 15.0001 10.8333C15.0001 10.4065 15.1605 10.0172 15.4244 9.72231C15.4193 9.67668 15.4167 9.63031 15.4167 9.58333C15.4167 8.89298 15.9764 8.33333 16.6667 8.33333C17.3571 8.33333 17.9167 8.89298 17.9167 9.58333C17.9167 9.63031 17.9142 9.67668 17.9091 9.72231C18.173 10.0172 18.3334 10.4065 18.3334 10.8333C18.3334 11.7538 17.5872 12.5 16.6667 12.5ZM18.3334 17.5H1.66675M1.66675 17.5H11.6667V6.5C11.6667 5.09987 11.6667 4.3998 11.3943 3.86502C11.1546 3.39462 10.7721 3.01217 10.3017 2.77248C9.76695 2.5 9.06688 2.5 7.66675 2.5L5.66675 2.5C4.26662 2.5 3.56655 2.5 3.03177 2.77248C2.56137 3.01217 2.17891 3.39462 1.93923 3.86502C1.66675 4.3998 1.66675 5.09987 1.66675 6.5L1.66675 17.5ZM5.00008 6.66667V6.67496M8.33341 6.66667V6.67496M5.00008 10V10.0083M8.33341 10V10.0083" stroke="#F9FAFB" stroke-width="1.66667" stroke-linecap="round" stroke-linejoin="round"/>
</svg>
