<svg width="20" height="20" viewBox="0 0 20 20" fill="none" xmlns="http://www.w3.org/2000/svg">
<path d="M12.5 8.33333L9.16667 11.6667L7.5 10M6.61304 15.7905C5.9164 15.7905 5.56807 15.7905 5.29013 15.6876C4.83789 15.5201 4.4813 15.1635 4.3138 14.7112C4.21085 14.4333 4.21085 14.0851 4.21085 13.3887C4.21085 13.086 4.21085 12.9346 4.18524 12.7908C4.14323 12.555 4.05049 12.3311 3.91343 12.1346C3.82984 12.0148 3.72294 11.9079 3.50914 11.6941C3.02043 11.2054 2.77608 10.961 2.65253 10.6937C2.44916 10.2536 2.44916 9.74641 2.65253 9.30632C2.77608 9.03897 3.02043 8.79462 3.50914 8.30591C3.72294 8.09211 3.82984 7.98522 3.91343 7.86539C4.05049 7.66893 4.14323 7.44504 4.18524 7.2092C4.21085 7.06536 4.21085 6.91416 4.21085 6.61176C4.21085 5.92001 4.21085 5.57413 4.31268 5.29755C4.48008 4.84287 4.83847 4.48449 5.29315 4.31709C5.56973 4.21526 5.91555 4.21526 6.6072 4.21526C6.90977 4.21526 7.06106 4.21526 7.20501 4.1896C7.44069 4.14759 7.66445 4.05491 7.86081 3.91796C7.98074 3.83432 8.08782 3.72723 8.302 3.51305C8.79416 3.0209 9.04024 2.77482 9.30946 2.65108C9.74778 2.44964 10.2522 2.44964 10.6905 2.65108C10.9598 2.77482 11.206 3.02104 11.6984 3.5135C11.9121 3.72718 12.019 3.83402 12.1385 3.91748C12.3353 4.05485 12.5596 4.14776 12.7958 4.18975C12.9394 4.21526 13.0902 4.21526 13.3919 4.21526C14.0816 4.21526 14.4264 4.21526 14.7022 4.31651C15.1582 4.48385 15.5175 4.84318 15.6849 5.29913C15.7861 5.575 15.7861 5.91982 15.7861 6.60946C15.7861 6.91116 15.7861 7.06201 15.8116 7.20556C15.8536 7.44182 15.9465 7.66612 16.0839 7.86287C16.1674 7.98241 16.2742 8.08921 16.4878 8.30281C16.9791 8.79417 17.2248 9.03984 17.3485 9.30848C17.5505 9.74736 17.5505 10.2526 17.3485 10.6915C17.2248 10.9602 16.9794 11.2056 16.4886 11.6963C16.2741 11.9109 16.1668 12.0182 16.083 12.1384C15.9464 12.3344 15.8539 12.5577 15.8119 12.7929C15.7861 12.9372 15.7861 13.0889 15.7861 13.3922C15.7861 14.0857 15.7861 14.4324 15.6838 14.7097C15.5163 15.1632 15.1588 15.5207 14.7053 15.6882C14.428 15.7905 14.0809 15.7905 13.3867 15.7905C13.0846 15.7905 12.9335 15.7905 12.79 15.816C12.5537 15.858 12.3295 15.9509 12.1328 16.0883C12.0132 16.1717 11.9065 16.2784 11.6931 16.4918C11.2053 16.9796 10.9614 17.2235 10.6947 17.347C10.254 17.551 9.74599 17.551 9.30534 17.347C9.03858 17.2235 8.79468 16.9796 8.30689 16.4918C8.09348 16.2784 7.98678 16.1717 7.86721 16.0883C7.67049 15.9509 7.44625 15.858 7.21005 15.816C7.06646 15.7905 6.91532 15.7905 6.61304 15.7905Z" stroke="#128FBA" stroke-width="2" stroke-linecap="round" stroke-linejoin="round"/>
</svg>
