<svg width="25" height="25" viewBox="0 0 25 25" fill="none" xmlns="http://www.w3.org/2000/svg">
<path d="M12.4999 10.4167C13.9382 10.4167 15.1041 9.25078 15.1041 7.81254C15.1041 6.3743 13.9382 5.20837 12.4999 5.20837C11.0617 5.20837 9.89575 6.3743 9.89575 7.81254C9.89575 9.25078 11.0617 10.4167 12.4999 10.4167ZM12.4999 10.4167C14.8011 10.4167 16.6666 12.2822 16.6666 14.5834V19.7917M12.4999 10.4167C10.1987 10.4167 8.33325 12.2822 8.33325 14.5834V19.7917M19.7736 10.4511C21.5492 10.6961 22.9166 12.2196 22.9166 14.0625V17.7084M5.22623 10.4511C3.45065 10.6961 2.08325 12.2196 2.08325 14.0625V17.7084M21.8749 8.85421C21.8749 9.71715 21.1754 10.4167 20.3124 10.4167C19.4495 10.4167 18.7499 9.71715 18.7499 8.85421C18.7499 7.99126 19.4495 7.29171 20.3124 7.29171C21.1754 7.29171 21.8749 7.99126 21.8749 8.85421ZM6.24992 8.85421C6.24992 9.71715 5.55037 10.4167 4.68742 10.4167C3.82448 10.4167 3.12492 9.71715 3.12492 8.85421C3.12492 7.99126 3.82448 7.29171 4.68742 7.29171C5.55037 7.29171 6.24992 7.99126 6.24992 8.85421Z" stroke="#128FBA" stroke-width="2" stroke-linecap="round" stroke-linejoin="round"/>
</svg>
