<svg width="20" height="20" viewBox="0 0 20 20" fill="none" xmlns="http://www.w3.org/2000/svg">
<path d="M12.5 13.3333C12.5 13.3333 11.6667 14.1666 10 14.1666C8.33333 14.1666 7.5 13.3333 7.5 13.3333M10.8333 17.5H9.16667C6.83311 17.5 5.66634 17.5 4.77504 17.0458C3.99103 16.6464 3.35361 16.0089 2.95414 15.2249C2.5 14.3336 2.5 13.1669 2.5 10.8333L2.5 10.2345C2.5 8.93006 2.5 8.27783 2.67979 7.6858C2.83897 7.16167 3.09992 6.67407 3.44773 6.2509C3.8406 5.7729 4.38329 5.41111 5.46867 4.68752L8.5208 2.65277C9.05539 2.29637 9.32269 2.11817 9.6116 2.04894C9.86692 1.98776 10.1331 1.98776 10.3884 2.04894C10.6773 2.11817 10.9446 2.29637 11.4792 2.65277L14.5313 4.68752C15.6167 5.41111 16.1594 5.7729 16.5523 6.2509C16.9001 6.67407 17.161 7.16167 17.3202 7.6858C17.5 8.27783 17.5 8.93006 17.5 10.2345V10.8333C17.5 13.1669 17.5 14.3336 17.0459 15.2249C16.6464 16.0089 16.009 16.6464 15.225 17.0458C14.3337 17.5 13.1669 17.5 10.8333 17.5Z" stroke="#F9FAFB" stroke-width="2" stroke-linecap="round" stroke-linejoin="round"/>
</svg>
