<svg width="25" height="25" viewBox="0 0 25 25" fill="none" xmlns="http://www.w3.org/2000/svg">
<path d="M2.08325 9.10747L2.08325 17.6192C2.08325 19.382 3.5197 20.811 5.29164 20.811C7.06358 20.811 8.50002 19.382 8.50002 17.6192V9.10747C8.50002 7.34465 7.06358 5.91559 5.29164 5.91559C3.5197 5.91559 2.08325 7.34465 2.08325 9.10747Z" stroke="#128FBA" stroke-width="2" stroke-linecap="round" stroke-linejoin="round"/>
<path d="M11.739 4.0156L9.62492 6.64463C9.20799 7.1631 8.99953 7.42234 8.85129 7.71101C8.71977 7.96712 8.62365 8.23974 8.56553 8.52146C8.50002 8.839 8.50002 9.17099 8.50002 9.83496V16.5677C8.50002 17.3484 8.50002 17.7388 8.58867 18.1061C8.66727 18.4318 8.7969 18.7432 8.97281 19.0287C9.17122 19.3509 9.44867 19.6269 10.0036 20.1789L10.2049 20.3792C10.7598 20.9312 11.0372 21.2073 11.361 21.4046C11.6481 21.5797 11.961 21.7086 12.2884 21.7868C12.6576 21.875 13.05 21.875 13.8347 21.875H15.7724C17.0092 21.875 17.6276 21.875 18.1643 21.6784C18.6386 21.5047 19.0649 21.2219 19.4085 20.8532C19.7973 20.436 20.0352 19.868 20.5109 18.7322L21.5804 16.1787C22.5706 13.8144 23.0657 12.6322 22.877 11.6812C22.7121 10.8498 22.2215 10.1178 21.5135 9.64652C20.7037 9.10747 19.4164 9.10747 16.8418 9.10747H15.9863V5.49779C15.9863 4.47652 15.3294 3.56984 14.3555 3.24689C13.4076 2.93254 12.3632 3.23938 11.739 4.0156Z" stroke="#128FBA" stroke-width="2" stroke-linecap="round" stroke-linejoin="round"/>
</svg>
