<svg width="25" height="25" viewBox="0 0 25 25" fill="none" xmlns="http://www.w3.org/2000/svg">
<path d="M6.09003 8.12006L9.53583 10.392C10.5159 11.0382 11.006 11.3613 11.5345 11.4851C12.0015 11.5945 12.4878 11.592 12.9538 11.4778C13.481 11.3486 13.9677 11.0205 14.9411 10.3643L18.27 8.12006M14.21 20.3001H10.15C7.30776 20.3001 5.88663 20.3001 4.80103 19.7469C3.84611 19.2604 3.06973 18.484 2.58317 17.5291C2.03003 16.4435 2.03003 15.0223 2.03003 12.1801C2.03003 9.33779 2.03003 7.91666 2.58317 6.83106C3.06973 5.87613 3.84611 5.09976 4.80103 4.6132C5.88663 4.06006 7.30776 4.06006 10.15 4.06006L14.21 4.06006C17.0523 4.06006 18.4734 4.06006 19.559 4.6132C20.514 5.09976 21.2903 5.87613 21.7769 6.83106C22.33 7.91666 22.33 9.33779 22.33 12.1801C22.33 15.0223 22.33 16.4435 21.7769 17.5291C21.2903 18.484 20.514 19.2604 19.559 19.7469C18.4734 20.3001 17.0523 20.3001 14.21 20.3001Z" stroke="white" stroke-opacity="0.7" stroke-width="2.70667" stroke-linecap="round" stroke-linejoin="round"/>
</svg>
