<svg width="25" height="25" viewBox="0 0 25 25" fill="none" xmlns="http://www.w3.org/2000/svg">
<path d="M6.24992 8.33341L9.78625 10.6651C10.7921 11.3282 11.295 11.6598 11.8374 11.7869C12.3167 11.8992 12.8158 11.8966 13.294 11.7794C13.835 11.6468 14.3345 11.3101 15.3335 10.6366L18.7499 8.33341M14.5833 20.8334H10.4166C7.49965 20.8334 6.04118 20.8334 4.92705 20.2657C3.94704 19.7664 3.15027 18.9696 2.65093 17.9896C2.08325 16.8755 2.08325 15.417 2.08325 12.5001C2.08325 9.58314 2.08325 8.12467 2.65093 7.01055C3.15027 6.03054 3.94704 5.23376 4.92705 4.73442C6.04118 4.16675 7.49965 4.16675 10.4166 4.16675L14.5833 4.16675C17.5002 4.16675 18.9587 4.16675 20.0728 4.73442C21.0528 5.23376 21.8496 6.03054 22.3489 7.01055C22.9166 8.12467 22.9166 9.58314 22.9166 12.5001C22.9166 15.417 22.9166 16.8755 22.3489 17.9896C21.8496 18.9696 21.0528 19.7664 20.0728 20.2657C18.9587 20.8334 17.5002 20.8334 14.5833 20.8334Z" stroke="#128FBA" stroke-width="2" stroke-linecap="round" stroke-linejoin="round"/>
</svg>
