<svg width="25" height="25" viewBox="0 0 25 25" fill="none" xmlns="http://www.w3.org/2000/svg">
<path d="M9.48234 4.11463C8.16284 2.79512 6.0235 2.79512 4.704 4.11463L4.20509 4.61353C3.5368 5.28183 3.09424 6.16246 3.12667 7.10701C3.24311 10.498 4.85549 14.1981 7.82869 17.1713C10.8019 20.1445 14.502 21.7569 17.893 21.8733C18.8375 21.9058 19.7182 21.4632 20.3865 20.7949L20.8854 20.296C22.2049 18.9765 22.2049 16.8372 20.8854 15.5177L20.6884 15.3207C19.6342 14.2664 17.9722 14.1289 16.759 14.9955C16.0869 15.4755 15.2379 15.6904 14.4632 15.4043C13.4047 15.0134 12.3866 14.374 11.5063 13.4937C10.626 12.6134 9.98661 11.5953 9.59573 10.5368C9.30963 9.76206 9.52446 8.9131 10.0045 8.24103C10.8711 7.02779 10.7336 5.36585 9.67929 4.31158L9.48234 4.11463Z" stroke="#128FBA" stroke-width="2" stroke-linecap="round" stroke-linejoin="round"/>
</svg>
