<svg width="25" height="25" viewBox="0 0 25 25" fill="none" xmlns="http://www.w3.org/2000/svg">
<path d="M9.23951 4.00921C7.95379 2.72349 5.86922 2.72349 4.5835 4.00921L4.09736 4.49535C3.44618 5.14653 3.01495 6.00462 3.04655 6.92499C3.16 10.2292 4.73111 13.8346 7.62819 16.7316C10.5253 19.6287 14.1307 21.1998 17.4349 21.3133C18.3552 21.3449 19.2133 20.9137 19.8645 20.2625L20.3506 19.7763C21.6364 18.4906 21.6364 16.4061 20.3506 15.1203L20.1587 14.9284C19.1314 13.9011 17.512 13.7671 16.3299 14.6115C15.675 15.0793 14.8478 15.2886 14.0928 15.0098C13.0614 14.629 12.0694 14.006 11.2116 13.1482C10.3539 12.2904 9.73088 11.2984 9.35 10.267C9.07123 9.51208 9.28056 8.68484 9.74831 8.02999C10.5927 6.8478 10.4587 5.2284 9.43142 4.20112L9.23951 4.00921Z" stroke="white" stroke-opacity="0.7" stroke-width="2.70667" stroke-linecap="round" stroke-linejoin="round"/>
</svg>
