<svg width="25" height="25" viewBox="0 0 25 25" fill="none" xmlns="http://www.w3.org/2000/svg">
<path d="M3.2352 9.2662C3.42508 11.6667 3.92298 14.8795 5.20873 16.9643C6.40091 18.8975 8.65504 20.5866 10.3429 21.6667C10.9609 22.0622 11.2699 22.2599 11.7949 22.3816C12.1719 22.469 12.8289 22.469 13.2059 22.3816C13.7309 22.2599 14.0399 22.0622 14.6579 21.6667C16.3458 20.5866 18.5999 18.8975 19.7921 16.9643C21.0778 14.8795 21.5757 11.6667 21.7656 9.2662C21.8447 8.26613 21.8843 7.76609 21.7115 7.19926C21.5719 6.7414 21.2512 6.21329 20.9093 5.87829C20.4861 5.46357 19.9613 5.24145 18.9118 4.7972L14.4494 2.90836C13.7306 2.60409 13.3712 2.45196 12.9988 2.3918C12.6687 2.33847 12.3321 2.33847 12.002 2.3918C11.6296 2.45196 11.2702 2.60409 10.5514 2.90836L6.08901 4.7972C5.03948 5.24145 4.51472 5.46357 4.09146 5.87829C3.74956 6.21329 3.42887 6.7414 3.28931 7.19926C3.11654 7.76609 3.1561 8.26614 3.2352 9.2662Z" stroke="#128FBA" stroke-width="2" stroke-linecap="round" stroke-linejoin="round"/>
</svg>
