<svg width="16" height="16" viewBox="0 0 16 16" fill="none" xmlns="http://www.w3.org/2000/svg">
<g clip-path="url(#clip0_44_373)">
<path d="M6.33359 7.69019L7.74781 9.1044L10.1048 6.74738M3.33359 10.8569C2.51071 9.52258 2.19205 7.46641 2.07053 5.9301C2.0199 5.29005 1.99459 4.97002 2.10516 4.60726C2.19448 4.31422 2.39972 3.97623 2.61853 3.76183C2.88942 3.49641 3.22527 3.35425 3.89697 3.06993L6.7529 1.86108C7.21295 1.66635 7.44297 1.56898 7.68129 1.53048C7.89256 1.49635 8.10794 1.49635 8.31922 1.53048C8.55754 1.56898 8.78756 1.66635 9.24761 1.86108L12.1035 3.06993C12.7752 3.35425 13.1111 3.49641 13.382 3.76183C13.6008 3.97623 13.806 4.31422 13.8953 4.60726C14.0059 4.97002 13.9806 5.29005 13.93 5.93009C13.8085 7.46641 13.4898 9.52259 12.6669 10.8569C11.9039 12.0941 10.4613 13.1751 9.38108 13.8664C8.98554 14.1195 8.78778 14.2461 8.45175 14.324C8.21049 14.3799 7.79002 14.3799 7.54875 14.324C7.21273 14.2461 7.01496 14.1195 6.61943 13.8664C5.53923 13.1751 4.09658 12.0941 3.33359 10.8569Z" stroke="#128FBA" stroke-width="1.61711" stroke-linecap="round" stroke-linejoin="round"/>
</g>
<defs>
<clipPath id="clip0_44_373">
<rect width="16" height="16" fill="white"/>
</clipPath>
</defs>
</svg>
