<svg width="20" height="20" viewBox="0 0 20 20" fill="none" xmlns="http://www.w3.org/2000/svg">
<path d="M7.67315 5.29115C8.34049 3.94033 8.67416 3.26492 9.09782 3.00484C9.65128 2.66505 10.3487 2.66505 10.9022 3.00484C11.3258 3.26492 11.6595 3.94033 12.3268 5.29115C12.5241 5.69047 12.6228 5.89013 12.7593 6.05135C12.9385 6.263 13.1662 6.4283 13.4229 6.53322C13.6185 6.61313 13.8391 6.64514 14.2803 6.70918C15.769 6.92523 16.5133 7.03325 16.891 7.35359C17.3889 7.77593 17.6056 8.44326 17.4508 9.07755C17.3333 9.55866 16.7952 10.0826 15.719 11.1305C15.4003 11.4408 15.241 11.5959 15.1298 11.7751C14.9831 12.0116 14.8958 12.2801 14.8754 12.5576C14.8599 12.768 14.8975 12.9872 14.9728 13.4255C15.227 14.9064 15.3541 15.6468 15.1658 16.1053C14.9182 16.7082 14.3517 17.12 13.7017 17.1696C13.2076 17.2072 12.5411 16.8571 11.2081 16.1569C10.8124 15.9491 10.6145 15.8451 10.4089 15.7949C10.1402 15.7294 9.85977 15.7294 9.59115 15.7949C9.3855 15.8451 9.18764 15.9491 8.79191 16.1569C7.45894 16.8571 6.79245 17.2072 6.2983 17.1696C5.64833 17.12 5.08183 16.7082 4.83418 16.1053C4.6459 15.6468 4.77301 14.9064 5.02721 13.4255C5.10246 12.9872 5.14009 12.768 5.1246 12.5576C5.10417 12.2801 5.01688 12.0116 4.87019 11.7751C4.75897 11.5959 4.59966 11.4408 4.28103 11.1305C3.20479 10.0826 2.66668 9.55866 2.54924 9.07755C2.39442 8.44326 2.61111 7.77593 3.10903 7.35359C3.4867 7.03325 4.23104 6.92523 5.71972 6.70918C6.16092 6.64514 6.38152 6.61313 6.57709 6.53322C6.83383 6.4283 7.06148 6.263 7.24072 6.05135C7.37724 5.89013 7.47588 5.69047 7.67315 5.29115Z" fill="#E7B431" stroke="white" stroke-width="2" stroke-linecap="round" stroke-linejoin="round"/>
</svg>
