<svg width="20" height="20" viewBox="0 0 20 20" fill="none" xmlns="http://www.w3.org/2000/svg">
<path d="M7.08315 7.08338L4.99982 5.00004M10.4817 12.3007L6.78721 16.8765C5.80991 18.0869 3.99898 18.1831 2.89893 17.083C1.79648 15.9806 1.8959 14.1649 3.11215 13.1894L7.68321 9.52323C6.88524 8.11551 6.9702 6.35301 7.93809 5.02083C8.13083 4.75553 8.40454 4.48182 8.95197 3.9344C9.49939 3.38698 9.7731 3.11327 10.0384 2.92052C11.4488 1.89578 13.3416 1.86074 14.785 2.81539L12.4875 5.11291C11.8366 5.76379 11.8366 6.81906 12.4875 7.46993C13.1384 8.12081 14.1936 8.12081 14.8445 7.46993L17.142 5.17242C18.0967 6.61583 18.0616 8.50861 17.0369 9.91904C16.8442 10.1843 16.5705 10.458 16.023 11.0055C15.4756 11.5529 15.2019 11.8266 14.9366 12.0193M10.4817 12.3007C11.8814 13.0702 13.6194 12.9764 14.9366 12.0193M10.4817 12.3007L9.98338 12.9181L13.1793 16.8763C14.1566 18.0867 15.9675 18.1829 17.0675 17.0829C18.17 15.9804 18.0706 14.1647 16.8543 13.1892L15.1662 11.8353C15.0852 11.9058 15.0106 11.9656 14.9366 12.0193M5.79165 3.43429L3.43462 5.79131L2.49982 3.67799L3.67833 2.49948L5.79165 3.43429Z" stroke="#F9FAFB" stroke-width="1.66667" stroke-linecap="round" stroke-linejoin="round"/>
</svg>
