<svg width="16" height="16" viewBox="0 0 16 16" fill="none" xmlns="http://www.w3.org/2000/svg">
<path d="M2 8C2 11.3137 4.68629 14 8 14C11.3137 14 14 11.3137 14 8C14 4.68629 11.3137 2 8 2C4.68629 2 2 4.68629 2 8ZM2 8C2 9.53671 2.57771 10.9385 3.52779 12H4L5.52164 11.3333L4.66667 9L6 8.33333L5.81364 6L3.33333 4.66667H3.01037C2.37218 5.62007 2 6.76657 2 8ZM13.5695 10.2361C12.7628 12.2435 10.9023 13.7139 8.67289 13.9627L9.33333 10L11.6667 9.66667L13.3333 10L13.5695 10.2361Z" stroke="#128FBA" stroke-width="1.61711" stroke-linecap="round" stroke-linejoin="round"/>
</svg>
